<?xml version="1.0" encoding="UTF-8" standalone="no"?>
<!DOCTYPE svg PUBLIC "-//W3C//DTD SVG 1.1//EN"
 "http://www.w3.org/Graphics/SVG/1.1/DTD/svg11.dtd">
<!-- Generated by graphviz version 2.40.1 (20161225.0304)
 -->
<!-- Title: data_flow Pages: 1 -->
<svg width="301pt" height="413pt"
 viewBox="0.00 0.00 301.00 413.00" xmlns="http://www.w3.org/2000/svg" xmlns:xlink="http://www.w3.org/1999/xlink">
<g id="graph0" class="graph" transform="scale(1 1) rotate(0) translate(4 409)">
<title>data_flow</title>
<polygon fill="#ffffff" stroke="transparent" points="-4,4 -4,-409 297,-409 297,4 -4,4"/>
<g id="clust1" class="cluster">
<title>cluster_ddrescue_output</title>
<polygon fill="none" stroke="#000000" points="72.5,-253 72.5,-328 248.5,-328 248.5,-253 72.5,-253"/>
<text text-anchor="middle" x="160.5" y="-312.8" font-family="Times,serif" font-size="14.00" fill="#000000">ddrescue output</text>
</g>
<!-- _disk -->
<g id="node1" class="node">
<title>_disk</title>
<polygon fill="none" stroke="#000000" points="192.5,-405 142.5,-405 138.5,-401 138.5,-369 188.5,-369 192.5,-373 192.5,-405"/>
<polyline fill="none" stroke="#000000" points="188.5,-401 138.5,-401 "/>
<polyline fill="none" stroke="#000000" points="188.5,-401 188.5,-369 "/>
<polyline fill="none" stroke="#000000" points="188.5,-401 192.5,-405 "/>
<text text-anchor="middle" x="165.5" y="-383.3" font-family="Times,serif" font-size="14.00" fill="#000000">Disk</text>
</g>
<!-- _disk_image -->
<g id="node2" class="node">
<title>_disk_image</title>
<polygon fill="none" stroke="#000000" points="156,-297 81,-297 81,-261 162,-261 162,-291 156,-297"/>
<polyline fill="none" stroke="#000000" points="156,-297 156,-291 "/>
<polyline fill="none" stroke="#000000" points="162,-291 156,-291 "/>
<text text-anchor="middle" x="121.5" y="-275.3" font-family="Times,serif" font-size="14.00" fill="#000000">Disk image</text>
</g>
<!-- _disk&#45;&gt;_disk_image -->
<g id="edge1" class="edge">
<title>_disk&#45;&gt;_disk_image</title>
<path fill="none" stroke="#000000" d="M153.8009,-368.7249C150.5287,-363.1655 147.1473,-356.9497 144.5,-351 138.2087,-336.8604 132.8327,-320.4676 128.8638,-306.8988"/>
<polygon fill="#000000" stroke="#000000" points="132.1985,-305.8286 126.1112,-297.1571 125.4623,-307.732 132.1985,-305.8286"/>
<text text-anchor="middle" x="162.5" y="-339.8" font-family="Times,serif" font-size="14.00" fill="#000000">Step 1</text>
</g>
<!-- _mapfile -->
<g id="node3" class="node">
<title>_mapfile</title>
<polygon fill="none" stroke="#000000" points="234.5,-297 180.5,-297 180.5,-261 240.5,-261 240.5,-291 234.5,-297"/>
<polyline fill="none" stroke="#000000" points="234.5,-297 234.5,-291 "/>
<polyline fill="none" stroke="#000000" points="240.5,-291 234.5,-291 "/>
<text text-anchor="middle" x="210.5" y="-275.3" font-family="Times,serif" font-size="14.00" fill="#000000">Mapfile</text>
</g>
<!-- _disk&#45;&gt;_mapfile -->
<g id="edge2" class="edge">
<title>_disk&#45;&gt;_mapfile</title>
<path fill="none" stroke="#000000" d="M173.1336,-368.6793C180.2555,-351.5868 190.9742,-325.8619 199.1078,-306.3413"/>
<polygon fill="#000000" stroke="#000000" points="202.3637,-307.6271 202.9791,-297.0502 195.9021,-304.9348 202.3637,-307.6271"/>
<text text-anchor="middle" x="204.5" y="-339.8" font-family="Times,serif" font-size="14.00" fill="#000000">Step 1</text>
</g>
<!-- _file_system_dfxml -->
<g id="node6" class="node">
<title>_file_system_dfxml</title>
<polygon fill="none" stroke="#000000" points="136,-210 9,-210 9,-174 142,-174 142,-204 136,-210"/>
<polyline fill="none" stroke="#000000" points="136,-210 136,-204 "/>
<polyline fill="none" stroke="#000000" points="142,-204 136,-204 "/>
<text text-anchor="middle" x="75.5" y="-188.3" font-family="Times,serif" font-size="14.00" fill="#000000">File system DFXML</text>
</g>
<!-- _disk_image&#45;&gt;_file_system_dfxml -->
<g id="edge5" class="edge">
<title>_disk_image&#45;&gt;_file_system_dfxml</title>
<path fill="none" stroke="#000000" d="M111.9688,-260.9735C105.5543,-248.8418 96.9818,-232.6287 89.7599,-218.9698"/>
<polygon fill="#000000" stroke="#000000" points="92.7874,-217.2077 85.019,-210.0034 86.5992,-220.4797 92.7874,-217.2077"/>
<text text-anchor="middle" x="119.5" y="-231.8" font-family="Times,serif" font-size="14.00" fill="#000000">Step 4</text>
</g>
<!-- _disk_image_dfxml -->
<g id="node4" class="node">
<title>_disk_image_dfxml</title>
<polygon fill="none" stroke="#000000" points="287,-210 160,-210 160,-174 293,-174 293,-204 287,-210"/>
<polyline fill="none" stroke="#000000" points="287,-210 287,-204 "/>
<polyline fill="none" stroke="#000000" points="293,-204 287,-204 "/>
<text text-anchor="middle" x="226.5" y="-188.3" font-family="Times,serif" font-size="14.00" fill="#000000">Disk image DFXML</text>
</g>
<!-- _mapfile&#45;&gt;_disk_image_dfxml -->
<g id="edge3" class="edge">
<title>_mapfile&#45;&gt;_disk_image_dfxml</title>
<path fill="none" stroke="#000000" d="M213.8152,-260.9735C215.982,-249.1918 218.8567,-233.5607 221.3215,-220.1581"/>
<polygon fill="#000000" stroke="#000000" points="224.8225,-220.4715 223.189,-210.0034 217.9379,-219.2053 224.8225,-220.4715"/>
<text text-anchor="middle" x="236.5" y="-231.8" font-family="Times,serif" font-size="14.00" fill="#000000">Step 2</text>
</g>
<!-- _disk_image_report -->
<g id="node5" class="node">
<title>_disk_image_report</title>
<polygon fill="none" stroke="#000000" points="281.5,-123 169.5,-123 169.5,-87 287.5,-87 287.5,-117 281.5,-123"/>
<polyline fill="none" stroke="#000000" points="281.5,-123 281.5,-117 "/>
<polyline fill="none" stroke="#000000" points="287.5,-117 281.5,-117 "/>
<text text-anchor="middle" x="228.5" y="-101.3" font-family="Times,serif" font-size="14.00" fill="#000000">Disk image report</text>
</g>
<!-- _disk_image_dfxml&#45;&gt;_disk_image_report -->
<g id="edge4" class="edge">
<title>_disk_image_dfxml&#45;&gt;_disk_image_report</title>
<path fill="none" stroke="#000000" d="M226.9144,-173.9735C227.1852,-162.1918 227.5446,-146.5607 227.8527,-133.1581"/>
<polygon fill="#000000" stroke="#000000" points="231.3553,-133.0812 228.0861,-123.0034 224.3571,-132.9202 231.3553,-133.0812"/>
<text text-anchor="middle" x="245.5" y="-144.8" font-family="Times,serif" font-size="14.00" fill="#000000">Step 3</text>
</g>
<!-- _recoverability_dfxml -->
<g id="node7" class="node">
<title>_recoverability_dfxml</title>
<polygon fill="none" stroke="#000000" points="145,-123 0,-123 0,-87 151,-87 151,-117 145,-123"/>
<polyline fill="none" stroke="#000000" points="145,-123 145,-117 "/>
<polyline fill="none" stroke="#000000" points="151,-117 145,-117 "/>
<text text-anchor="middle" x="75.5" y="-101.3" font-family="Times,serif" font-size="14.00" fill="#000000">Recoverability DFXML</text>
</g>
<!-- _disk_image_dfxml&#45;&gt;_recoverability_dfxml -->
<g id="edge6" class="edge">
<title>_disk_image_dfxml&#45;&gt;_recoverability_dfxml</title>
<path fill="none" stroke="#000000" d="M195.2127,-173.9735C172.1319,-160.6753 140.5394,-142.473 115.6045,-128.1065"/>
<polygon fill="#000000" stroke="#000000" points="117.1593,-124.963 106.7472,-123.0034 113.6646,-131.0283 117.1593,-124.963"/>
<text text-anchor="middle" x="178.5" y="-144.8" font-family="Times,serif" font-size="14.00" fill="#000000">Step 5</text>
</g>
<!-- _file_system_dfxml&#45;&gt;_recoverability_dfxml -->
<g id="edge7" class="edge">
<title>_file_system_dfxml&#45;&gt;_recoverability_dfxml</title>
<path fill="none" stroke="#000000" d="M75.5,-173.9735C75.5,-162.1918 75.5,-146.5607 75.5,-133.1581"/>
<polygon fill="#000000" stroke="#000000" points="79.0001,-133.0033 75.5,-123.0034 72.0001,-133.0034 79.0001,-133.0033"/>
<text text-anchor="middle" x="93.5" y="-144.8" font-family="Times,serif" font-size="14.00" fill="#000000">Step 5</text>
</g>
<!-- _recoverability_report -->
<g id="node8" class="node">
<title>_recoverability_report</title>
<polygon fill="none" stroke="#000000" points="137.5,-36 7.5,-36 7.5,0 143.5,0 143.5,-30 137.5,-36"/>
<polyline fill="none" stroke="#000000" points="137.5,-36 137.5,-30 "/>
<polyline fill="none" stroke="#000000" points="143.5,-30 137.5,-30 "/>
<text text-anchor="middle" x="75.5" y="-14.3" font-family="Times,serif" font-size="14.00" fill="#000000">Recoverability report</text>
</g>
<!-- _recoverability_dfxml&#45;&gt;_recoverability_report -->
<g id="edge8" class="edge">
<title>_recoverability_dfxml&#45;&gt;_recoverability_report</title>
<path fill="none" stroke="#000000" d="M75.5,-86.9735C75.5,-75.1918 75.5,-59.5607 75.5,-46.1581"/>
<polygon fill="#000000" stroke="#000000" points="79.0001,-46.0033 75.5,-36.0034 72.0001,-46.0034 79.0001,-46.0033"/>
<text text-anchor="middle" x="93.5" y="-57.8" font-family="Times,serif" font-size="14.00" fill="#000000">Step 6</text>
</g>
</g>
</svg>
